<svg height="500" viewBox="0 0 500 500" width="500" xmlns="http://www.w3.org/2000/svg"><path d="m462.695 257.939 9.313-6.918c.2-.149.281-.409.202-.646-.079-.236-.301-.394-.55-.392l-11.59.11-3.714-11.003c-.079-.236-.301-.394-.55-.393-.042.002-.084.006-.125.015-.198.046-.357.194-.418.389l-3.49 11.069-11.608.106c-.042.001-.084.006-.125.015-.221.05-.393.226-.437.448-.044.223.046.451.232.582l9.459 6.743-3.509 11.131c-.075.238.011.497.213.642.204.145.478.142.678-.007l9.354-6.937 9.503 6.761c.203.145.475.142.675-.008.201-.148.284-.408.205-.645zm-21.841-74.47c.235-.103.469-.216.708-.334l-3.157-7.164c-2.219.656-3.26-.785-4.803-4.29l-1.786-4.055c-1.8-4.088-1.753-5.951 1.83-7.527l3.178-1.397c3.898-1.716 4.979-.88 6.974 3.648l2.464 5.599c.942 2.145.895 3.542-.264 4.407l3.139 7.128.337-.147c2.26-.681 4.055-2.407 4.825-4.638.203-3.161-.566-6.309-2.204-9.02l-3.431-7.798c-3.432-7.799-6.699-9.929-13.556-6.912l-6.225 2.743c-2.658.831-4.732 2.925-5.537 5.591-.384 3.092.281 6.223 1.889 8.891l3.431 7.799c.935 3.063 2.77 5.774 5.266 7.78 2.21 1.075 4.814.961 6.922-.304m-18.776 66.529c0-69.6-41.925-132.344-106.224-158.978-64.3-26.634-138.312-11.912-187.525 37.301s-63.935 123.225-37.301 187.525c26.634 64.299 89.378 106.224 158.976 106.224 95.031 0 172.072-77.039 172.074-172.072m-65.216 182.877c-.191-1.473-.81-2.858-1.782-3.982-.727-.758-1.814-1.051-2.823-.759.689-.645 1.158-1.092 1.056-2.101-.403-1.495-1.207-2.852-2.325-3.923-1.514-.957-3.67.272-4.473.704l-5.811 3.128c-1.5.81-2.71 1.375-2.853 2.962.221 1.447.845 2.803 1.8 3.912.659.775 1.715 1.085 2.688.789-.658.442-1.07 1.169-1.111 1.961.346 1.564 1.131 2.996 2.262 4.129 1.727 1.243 3.769-.154 4.506-.532l6.021-3.241c.777-.44 2.698-1.328 2.845-3.047m-28.13 15.128-5.342-14.12-4.627 1.753-3.773 6.002 2.809 2.082 3.377-5.048 4.037 10.662zm-24.62 2.031-.642-2.819c-.24-1.731-1.029-3.339-2.251-4.587-1.429-.647-3.05-.727-4.535-.224l-5.504 1.247c-.557.128-3.168.605-3.993 2.156-.552 1.655-.565 3.444-.036 5.107l.638 2.816c.232 1.699 1.021 3.274 2.244 4.476 1.436.612 3.047.671 4.524.166l5.452-1.232c1.005-.231 3.208-.73 4.008-2.105.582-1.611.616-3.369.095-5.001m-30.036 11.814-.231-3.161-11.802.873c-.026-.374-.118-.95.095-1.247.337-.495.92-.594 1.774-.715l4.675-.664c1.141-.161 3.707-.425 4.411-2.357.378-2.023.19-4.112-.543-6.035-1.184-1.811-3.963-1.419-5.224-1.327l-5.152.381c-1.484-.084-2.926.506-3.927 1.606-.563 1.406-.714 2.944-.436 4.433l3.821-.283c-.104-.576-.077-1.169.077-1.734.392-.876 1.187-.876 1.891-.931l3.553-.261c.506-.036 1.559-.227 2.068.488.25.529.313 1.128.176 1.698-.341.909-2.211 1.045-2.746 1.103l-4.587.679c-1.266.052-2.454.623-3.285 1.58-.564 1.181-.74 2.511-.502 3.798l.238 3.234zm-49.824-4.613-3.898-.524-.568 4.202 3.901.524zm-5.335-11.564-15.381-3.087-1.43 3.483 6.318 1.269-2.244 11.182 4.04.814 2.241-11.186 6.354 1.276zm-28.895-5.133c-.362-1.352-1.424-2.403-2.78-2.75l-6.61-2.372c-1.793-.646-3.597-1.471-5.21-.019-1.186 1.485-1.861 3.312-1.925 5.211.187 1.979 2.277 2.691 3.512 3.153l.917.355 4.147 1.412c.172.066.337.128.495.191.935.348 1.741.652 1.789 1.342.042.467-.131.929-.469 1.253-.191.117-.412.174-.635.165-.551-.041-1.093-.173-1.602-.388l-4.799-1.723c-.671-.231-1.434-.495-1.042-1.907l.008-.011-3.66-1.313c-.466 1.044-.701 2.176-.689 3.319.41 1.326 1.467 2.353 2.805 2.724l6.387 2.291c1.316.473 4.231 1.5 5.87.033 1.188-1.32 1.858-3.027 1.885-4.803-.235-2.137-2.765-2.787-3.92-3.263l-.015-.004-4.924-1.716c-.843-.297-1.892-.671-2.038-1.485-.014-.448.136-.886.421-1.232.543-.453 1.315-.506 1.914-.131l.18.065 4.337 1.555c1.005.381 1.632.741 1.218 2.229l-.004.015 3.626 1.302c.496-1.102.771-2.291.811-3.498m-27.554-12.862-12.925-7.018-7.204 13.265 12.477 6.776 2.434-2.882-9.529-5.173 1.1-2.028 8.275 4.492 1.999-2.351-8.833-4.795 1.14-2.094 8.807 4.785zm-94.742-254.723 6.434-13.731 4.649-.403c1.863-3.645 4.283-7.604 4.283-7.604l-28.819 1.558-2.629 5.61-.011-.004-2.346 5.008 2.343.158 15.645 21.343c1.734-4.935 3.09-8.085 3.09-8.085zm-7.337 77.726c-.062-.195-.222-.342-.422-.388-.041-.009-.082-.014-.124-.015l-11.609-.106-3.49-11.07c-.062-.193-.22-.341-.418-.388-.041-.009-.083-.014-.125-.015-.249-.003-.471.156-.55.392l-3.717 11.004-11.587-.11c-.248-.002-.47.156-.55.392-.081.236 0 .498.202.645l9.313 6.919-3.718 11.062c-.08.236.002.498.203.646.2.149.474.152.677.006l9.5-6.761 9.357 6.937c.063.048.136.082.213.099.201.046.411-.019.551-.17s.188-.366.127-.563l-3.509-11.131 9.46-6.743c.202-.145.289-.404.216-.642m4.777-117.258 4.602 1.258 9.716 7.215c5.034 3.729 8.367 2.277 13.625-4.817l5.052-6.824c4.382-5.91 4.737-9.609-.216-13.28l-13.262-9.826s-2.651 2.996-5.951 7.201l4.602 1.258 8.191 6.068c2.83 2.101 2.533 3.71.212 6.845l-2.57 3.465c-2.79 3.769-4.114 4.579-7.058 2.398l-11.751-8.734s-3.021 4.297-5.192 7.773m30.872-37.024c.061 2.122.984 4.128 2.556 5.555 3.809 4.315 6.229 4.249 10.71.524l2.071-1.712 7.08-6.094c1.797-1.5 3.076-2.361 4.459-.796.483.453.719 1.111.634 1.767-.213.71-.65 1.332-1.247 1.771l-7.212 6.362c-1.811 1.598-2.834 2.119-4.102.983l.121-.132-5.735 5.056c.282.355.491.616.601.74 3.627 4.11 6.468 3.164 12.283-1.965l7.649-6.747c2.166-1.543 3.894-3.623 5.015-6.035.651-2.472-.195-5.097-2.167-6.724-3.875-4.393-6.838-4.627-11.245-.924l-3.824 3.208-5.694 5.016c-.637.658-1.473 1.087-2.38 1.221-.593-.031-1.141-.328-1.492-.807-.573-.51-.746-1.334-.425-2.031.477-.811 1.107-1.521 1.855-2.09l6.618-5.834c.756-.889 2.054-1.079 3.032-.444l.037.03 5.529-4.877c-.07-.088-.143-.179-.213-.256-3.193-3.619-6.306-3.399-10.57.363l-8.759 7.725c-3.025 2.669-4.979 4.62-5.185 7.146m31.059-27.026 2.343 7.7 3.058-3.828 5.91-3.564 9.233 15.568s3.046-1.859 6.53-3.89l-9.229-15.56 5.778-3.462 4.998-.92-5.614-5.779c-7.964 4.065-15.65 8.653-23.007 13.735m34.436-19.216 3.307 3.436 7.744 18.545s3.281-1.393 7.025-2.897l-9.464-22.669s-3.09 1.165-8.612 3.585m22.754-8.62 2.673 3.949 5.151 19.341s3.047-.895 7.036-2.032l-4.414-17.339 18.318 14.127s4.689-.935 10.273-1.697l-4.139-24.199s-3.879.575-7.513 1.206l3.634 17.629-18.842-14.395c-5.497 1.401-12.177 3.41-12.177 3.41m64.461-10.241q.869 2.282 1.723 4.561c-.257 6.919-.462 13.251-.664 20.166q11.836.335 23.576 1.478c5.558.557 8.268-1.075 8.884-5.907.424-1.395.232-2.904-.528-4.148s-2.016-2.104-3.45-2.364c2.431-.291 4.316-2.262 4.499-4.704.605-4.711-2.068-7.157-8.136-7.74-8.602-.939-17.251-1.387-25.904-1.342m43.437 27.748c2.407 2.341 5.472 3.891 8.785 4.44l8.528 2.541c3.073 1.353 6.486 1.734 9.782 1.093 2.259-.862 3.656-2.912 4.712-6.453l1.983-6.659c1.159-2.57 1.008-5.542-.407-7.982-2.411-2.335-5.474-3.883-8.785-4.439l-8.561-2.552c-3.065-1.341-6.465-1.719-9.749-1.082-2.409.887-3.736 3.065-4.833 6.739l-1.936 6.497c-1.171 2.533-.991 5.486.481 7.857m38.685 14.633c6.902 3.184 13.615 6.765 20.103 10.725l4.375-5.053s-5.456-3.226-14.769-7.751l8.645-16.297c-3.952-2.068-8.275-4.022-8.275-4.022l-.55 4.678zm28.874 16.071 18.706 15.138c4.682 3.788 8.283 3.531 11.751-.755l5.383-6.651c3.747-4.631 2.541-8.689-3.209-13.339-9.796-8.165-18.702-14.365-18.702-14.365l-1.452 4.543zm41.677 39.077s2.156 2.739 4.638 6.028l6.174-4.473s4.352 5.485 9.346 13.449l5.738-2.303c-5.305-8.261-10.138-14.582-10.138-14.582l3.656-2.541s5.261 6.886 10.779 15.51l5.764-2.325c-5.098-8.395-10.716-16.462-16.822-24.155l-2.636 3.916zm88.839 121.174c0 132.688-107.566 240.254-240.255 240.255-132.69 0-240.256-107.565-240.258-240.254-.001-132.689 107.563-240.257 240.253-240.259 63.722 0 124.833 25.313 169.89 70.37s70.37 106.168 70.37 169.888m-119.594 28.815c.011-14.615-4.178-28.928-12.069-41.232 1.341-5.332 2.02-10.809 2.019-16.306 0-35.869-28.547-66.664-64.002-66.664h-157.128l5.5 20.089h148.962c15.94-.013 30.777 8.132 39.325 21.586 8.547 13.454 9.616 30.346 2.833 44.77 14.915 16.628 18.654 40.473 9.544 60.868s-29.365 33.523-51.702 33.511h-6.449l-5.569 20.092h15.674c40.185 0 73.062-35.642 73.062-76.714m-51.111-35.55c5.28-6.107 8.185-13.911 8.184-21.984 0-17.735-13.874-33.791-31.125-33.791h-68.637c5.974 4.971 9.464 12.314 9.548 20.085h56.027c6.576-.094 12.325 4.415 13.801 10.824.86 4.046-.152 8.265-2.753 11.481-2.601 3.217-6.515 5.089-10.652 5.095h-56.266v20.092h54.243c7.247-.106 14.222 2.762 19.3 7.935 14.739 15.542 1.899 39.393-14.563 39.393l-.052.165-2.412 8.733-.25.873-2.903 10.482h6.559c22.028 0 40.185-20.895 40.185-43.833-.005-14.094-6.791-27.324-18.234-35.55m-41.779 79.383 5.565-20.088h-49.747c-2.307 0-4.52-.916-6.152-2.547-1.631-1.631-2.548-3.843-2.548-6.15v-83.178c0-6.153-2.445-12.053-6.795-16.403-4.351-4.35-10.252-6.793-16.404-6.792h-53.167l5.566 20.085h47.602c1.716.002 3.107 1.393 3.109 3.109v88.773c0 12.807 10.382 23.19 23.19 23.191zm-3.542 12.789h-68.806v20.092h63.229zm-82.218-115.11h-34.384l5.573 20.093h8.719v115.109h20.092zm220.324 29.673c0 89.654-72.68 162.334-162.335 162.335-89.655 0-162.336-72.679-162.337-162.334-.002-89.655 72.677-162.336 162.332-162.338 43.057-.001 84.348 17.103 114.792 47.547 30.445 30.444 47.548 71.736 47.548 114.79m-112.793 198.317c-.106-.67-.334-1.315-.674-1.902-.547-.726-2.116-.253-2.464-.173l-3.344.755c-.345.077-1.969.33-2.149 1.218-.051.677.022 1.358.217 2.009l.476 2.105c.113.673.33 1.326.646 1.932.614.58 1.517.732 2.287.385l3.836-.869c.845-.019 1.595-.546 1.899-1.335.029-.683-.056-1.366-.253-2.02zm5.122-390.049 4.624 1.379c4.63 1.379 6.761 1.298 7.971-2.772l1.008-3.377c1.214-4.07-.528-5.305-5.155-6.684l-4.657-1.386c-4.843-1.444-6.783-1.224-8.011 2.901l-.986 3.314c-1.188 3.985.645 5.265 5.206 6.625m-30.065-18.241c.097-.604-.071-1.221-.461-1.693-.391-.472-.965-.753-1.578-.77q-6.852-.611-13.738-.965-.137 2.255-.268 4.514 6.804.346 13.57.953c.61.125 1.244-.032 1.724-.428.481-.396.757-.988.751-1.61m77.147 390.939c-.723-.484-1.548.089-2.662.69l-2.108 1.133c-.998.539-1.724.865-1.925 1.272-.158.761.118 1.548.718 2.042.657.371 1.687-.249 2.563-.722l2.141-1.151c.921-.495 1.999-.95 2.017-1.877-.061-.541-.328-1.037-.744-1.386m34.032-333.182 2.757-3.406c1.896-2.343 1.35-4.591-1.719-7.073l-9.13-7.388-8.205 10.142 9.873 7.989c2.56 2.072 4.602 1.987 6.424-.264m-38.216 331.151c.88-.47 2.002-.95 2.002-1.801-.052-.491-.294-.942-.674-1.257-.668-.492-2.043.377-2.681.722l-3.3 1.775c-.41.217-.661.65-.645 1.114.045.484.301.923.7 1.199.697.437 1.804-.245 2.816-.792zm-284.047-261.128 4.052-8.646-10.014.635zm208.407-116.026q-6.935-.633-13.91-.99.137-2.448.271-4.895 7.067.363 14.105 1.005c1.301.181 2.229 1.355 2.104 2.663-.125 1.307-1.258 2.285-2.57 2.217"/><path d="m142.339 433.925 12.477 6.776 2.434-2.886-9.529-5.173 1.104-2.028 8.271 4.495 1.999-2.354-8.829-4.792 1.136-2.094 8.807 4.782 2.259-2.974-12.925-7.021zm44.903 3.861-6.607-2.372c-1.796-.646-3.6-1.471-5.213-.015-1.187 1.484-1.862 3.311-1.925 5.21.187 1.98 2.28 2.691 3.512 3.153l.917.356 4.147 1.412q.258.099.495.187c.935.352 1.741.656 1.789 1.345.041.468-.131.929-.469 1.254-.191.115-.412.171-.635.161-.551-.04-1.092-.171-1.602-.385l-4.799-1.723c-.671-.231-1.434-.499-1.038-1.907l.004-.011-3.66-1.312c-.466 1.043-.701 2.175-.689 3.318.409 1.327 1.467 2.352 2.805 2.721l6.387 2.295c1.316.473 4.231 1.499 5.87.033 1.189-1.32 1.859-3.027 1.885-4.803-.235-2.142-2.765-2.791-3.92-3.263l-.011-.004-4.928-1.716c-.843-.297-1.892-.671-2.038-1.489-.013-.448.137-.885.422-1.232.543-.45 1.313-.503 1.913-.132l.18.066 4.338 1.559c1.004.381 1.631.74 1.217 2.229l-.004.015 3.626 1.301c.496-1.102.771-2.29.811-3.498-.362-1.352-1.424-2.405-2.78-2.753m165.253-5.434c-.06-.541-.327-1.037-.744-1.386-.723-.484-1.548.084-2.662.686l-2.108 1.136c-.998.535-1.724.862-1.925 1.269-.158.762.118 1.549.718 2.046.66.366 1.687-.25 2.563-.723l2.141-1.151c.921-.499 1.999-.95 2.017-1.877m-6.71-2.457 1.786-.96c.876-.474 1.998-.95 1.998-1.801-.052-.491-.294-.943-.674-1.257-.668-.492-2.043.374-2.681.718l-3.3 1.779c-.412.216-.663.649-.645 1.114.047.484.304.923.704 1.199.693.433 1.8-.249 2.812-.792m9.299-1.001c.968 1.126 1.588 2.51 1.781 3.982-.15 1.72-2.067 2.607-2.848 3.047l-6.021 3.241c-.733.374-2.779 1.775-4.506.532-1.131-1.134-1.915-2.566-2.262-4.129.04-.792.452-1.519 1.111-1.961-.974.296-2.03-.015-2.688-.792-.955-1.108-1.579-2.463-1.8-3.909.143-1.587 1.353-2.155 2.853-2.962l5.811-3.132c.803-.432 2.959-1.657 4.473-.703 1.118 1.073 1.921 2.43 2.325 3.926.102 1.009-.367 1.456-1.056 2.101 1.01-.293 2.099-.001 2.827.759m-36.321 6.743-3.773 6.002 2.809 2.083 3.377-5.049 4.037 10.662 3.52-1.331-5.343-14.12zm-18.486 16.804c.03-.683-.056-1.366-.253-2.021l-.477-2.104c-.106-.672-.334-1.318-.674-1.907-.547-.722-2.116-.249-2.464-.172l-3.344.759c-.345.077-1.969.33-2.149 1.217-.049.677.024 1.358.217 2.009l.476 2.105c.113.674.331 1.326.646 1.932.614.58 1.517.732 2.287.385l3.836-.869c.844-.022 1.592-.548 1.899-1.334m3.835-2.409c.521 1.633.487 3.392-.095 5.005-.796 1.374-3.003 1.873-4.008 2.1l-5.452 1.236c-1.477.506-3.089.446-4.524-.169-1.223-1.201-2.012-2.774-2.244-4.473l-.638-2.816c-.529-1.663-.516-3.451.036-5.107.825-1.555 3.436-2.028 3.997-2.156l5.5-1.247c1.485-.505 3.107-.425 4.535.224 1.224 1.248 2.013 2.856 2.251 4.587zm-42.069 9.529c-.091-.417-.058-.852.095-1.25.337-.495.92-.594 1.775-.715l4.674-.664c1.141-.158 3.707-.425 4.411-2.357.378-2.023.19-4.11-.543-6.032-1.184-1.815-3.963-1.419-5.224-1.327l-5.152.381c-1.484-.083-2.926.507-3.927 1.606-.563 1.406-.714 2.944-.436 4.433l3.821-.282c-.104-.577-.077-1.169.077-1.735.392-.876 1.188-.88 1.892-.931l3.552-.264c.506-.037 1.559-.227 2.068.488.25.53.312 1.13.176 1.701-.341.906-2.207 1.045-2.746 1.104l-4.587.678c-1.265.053-2.452.623-3.285 1.577-.564 1.181-.739 2.511-.499 3.798l.239 3.238 15.652-1.159-.231-3.16zm-42.257 1.349 3.901.528.565-4.202-3.897-.528zm-17.68-14.842 6.318 1.269-2.244 11.183 4.04.81 2.244-11.183 6.351 1.276.102-3.751-15.381-3.087zm158.51-224.793c0-35.869-28.543-66.664-64.002-66.664h-157.128l5.5 20.085h148.962c15.94-.009 30.775 8.137 39.323 21.59 8.547 13.454 9.618 30.345 2.838 44.77 14.913 16.629 18.65 40.474 9.54 60.868-9.111 20.394-29.364 33.522-51.701 33.511h-6.449l-5.569 20.089h15.674c40.185 0 73.062-35.638 73.062-76.714.012-14.615-4.178-28.926-12.069-41.229 1.341-5.332 2.02-10.808 2.019-16.306m-127.022 81.279c-2.307.002-4.52-.914-6.152-2.545s-2.549-3.844-2.548-6.152v-83.178c0-6.152-2.444-12.052-6.794-16.402-4.35-4.349-10.25-6.793-16.402-6.792h-53.17l5.566 20.089h47.605c1.715.002 3.104 1.391 3.106 3.105v88.777c0 12.807 10.382 23.189 23.189 23.191h49.782l5.565-20.093zm63.02-115.069h-68.637c5.974 4.973 9.464 12.316 9.548 20.089h56.031c6.575-.093 12.322 4.416 13.797 10.823.86 4.047-.152 8.265-2.753 11.482-2.601 3.216-6.515 5.088-10.652 5.094h-56.266v20.093h54.246c7.246-.107 14.22 2.759 19.297 7.93 14.739 15.546 1.899 39.397-14.563 39.397l-.052.161-2.412 8.734-.25.876-2.903 10.483h6.559c22.028 0 40.185-20.896 40.185-43.837-.005-14.091-6.79-27.322-18.232-35.549 5.28-6.106 8.186-13.909 8.186-21.982 0-17.735-13.878-33.794-31.129-33.794m-133.409 52.929h8.719v115.11h20.092v-135.198h-34.381zm42.223 115.11h63.229l5.577-20.089h-68.806zm-145.585-105.247-11.608-.11-3.491-11.065c-.059-.196-.219-.344-.418-.389-.041-.011-.083-.015-.125-.015-.249-.004-.472.155-.55.393l-3.717 10.999-11.586-.106c-.25-.002-.472.156-.551.392s.002.497.202.645l9.313 6.919-3.718 11.062c-.049.153-.033.321.046.462.078.141.212.243.369.282.161.038.331.005.465-.092l9.5-6.764 9.357 6.94c.063.047.136.08.213.096.201.047.412-.017.553-.169.14-.152.188-.368.125-.565l-3.509-11.128 9.46-6.742c.202-.146.289-.404.216-.642-.061-.196-.222-.344-.422-.389-.04-.01-.082-.015-.124-.014m412.165.744-9.313 6.919 3.718 11.061c.05.154.033.321-.045.462-.079.142-.212.244-.369.283-.161.038-.331.004-.466-.092l-9.5-6.765-9.357 6.941c-.062.048-.135.08-.212.095-.201.046-.412-.019-.552-.17s-.188-.366-.127-.563l3.509-11.128-9.459-6.743c-.202-.145-.289-.403-.217-.641.061-.196.222-.344.422-.389.041-.01.083-.015.125-.015l11.608-.11 3.49-11.065c.061-.195.22-.343.418-.389.041-.01.083-.015.125-.014.25-.005.473.154.55.392l3.718 10.999 11.586-.106c.249-.002.471.156.55.392.08.237-.002.497-.202.645" fill="#00bab5"/><path d="m250.004 412.331c-65.658 0-124.851-39.552-149.978-100.212-25.126-60.66-11.237-130.483 35.19-176.91s116.25-60.316 176.91-35.19c60.66 25.127 100.212 84.32 100.212 149.978 0 43.056-17.104 84.347-47.548 114.79s-71.735 47.545-114.789 47.544m.003-334.41c-69.599 0-132.344 41.925-158.978 106.225s-11.912 138.313 37.302 187.527c49.213 49.213 123.226 63.935 187.526 37.301 64.301-26.634 106.226-89.379 106.226-158.978 0-45.638-18.13-89.406-50.401-121.676-32.27-32.271-76.039-50.4-121.676-50.399m.001 412.33c-97.175.001-184.782-58.536-221.97-148.313-37.187-89.778-16.632-193.117 52.081-261.83s172.052-89.269 261.83-52.081c89.777 37.188 148.314 124.794 148.313 221.969 0 63.722-25.313 124.832-70.37 169.888s-106.167 70.368-169.886 70.367m.002-490.251c-101.114 0-192.272 60.91-230.967 154.327s-17.306 200.945 54.193 272.443c71.498 71.499 179.026 92.888 272.443 54.193s154.327-129.853 154.327-230.967c0-66.303-26.339-129.89-73.222-176.774-46.884-46.883-110.471-73.222-176.774-73.222" fill="#dfa325"/><path d="m150.72 62.337-5.779 3.461 9.229 15.561c-3.483 2.031-6.527 3.886-6.527 3.886l-9.235-15.564-5.911 3.564-3.058 3.827-2.343-7.699c7.358-5.082 15.046-9.671 23.011-13.735l5.61 5.779zm-83.145 96.821-4.056 8.649-5.961-8.011zm-15.931-.774-.011-.003-2.347 5.008 2.343.158 15.649 21.342c1.73-4.935 3.09-8.088 3.09-8.088l-2.643-3.85 6.435-13.731 4.649-.399c1.862-3.648 4.286-7.608 4.286-7.608l-28.823 1.562zm44.394-61.985c.205-2.527 2.159-4.48 5.184-7.146l8.759-7.729c4.264-3.758 7.381-3.978 10.571-.363.069.077.143.172.212.257l-5.529 4.88-.036-.033c-.979-.636-2.277-.446-3.033.443l-6.618 5.838c-.747.568-1.377 1.277-1.855 2.086-.32.698-.148 1.523.425 2.035.353.477.9.773 1.493.807.906-.135 1.743-.566 2.379-1.225l5.694-5.012 3.825-3.212c4.407-3.703 7.373-3.469 11.248.924 1.97 1.63 2.816 4.255 2.167 6.728-1.123 2.411-2.853 4.489-5.019 6.031l-7.648 6.75c-5.816 5.126-8.657 6.072-12.28 1.965-.113-.124-.322-.385-.605-.744l5.735-5.056-.121.136c1.268 1.133 2.291.612 4.103-.986l7.212-6.358c.595-.44 1.033-1.062 1.246-1.771.088-.658-.148-1.318-.634-1.771-1.382-1.562-2.662-.7-4.459.796l-7.08 6.097-2.067 1.712c-4.485 3.722-6.904 3.791-10.714-.524-1.571-1.428-2.494-3.433-2.555-5.554m74.107-49.832 9.463 22.67c-3.744 1.503-7.025 2.9-7.025 2.9l-7.744-18.549-3.307-3.435c5.522-2.42 8.613-3.586 8.613-3.586m179.079 8.733-8.646 16.295c9.313 4.528 14.769 7.754 14.769 7.754l-4.374 5.052c-6.489-3.959-13.201-7.54-20.104-10.724l9.529-17.724.55-4.678s4.323 1.958 8.276 4.025m71.335 58.129c6.103 7.695 11.72 15.764 16.818 24.158l-5.763 2.321c-5.519-8.623-10.78-15.509-10.78-15.509l-3.655 2.541s4.832 6.325 10.137 14.582l-5.738 2.302c-4.993-7.959-9.346-13.445-9.346-13.445l-6.17 4.473c-2.486-3.289-4.642-6.031-4.642-6.031l16.503-11.476zm31.536 52.251c1.636 2.711 2.406 5.856 2.207 9.016-.773 2.231-2.569 3.957-4.829 4.642-.11.048-.224.095-.337.143l-3.139-7.128c1.163-.861 1.21-2.262.264-4.403l-2.464-5.599c-1.991-4.528-3.076-5.368-6.973-3.652l-3.179 1.401c-3.582 1.576-3.63 3.435-1.83 7.523l1.786 4.059c1.543 3.505 2.585 4.943 4.803 4.286l3.157 7.168c-.239.118-.47.228-.708.33-2.108 1.264-4.711 1.38-6.922.308-2.495-2.007-4.329-4.718-5.265-7.78l-3.432-7.802c-1.608-2.669-2.273-5.8-1.888-8.891.805-2.666 2.879-4.76 5.536-5.592l6.229-2.739c6.853-3.017 10.12-.887 13.552 6.912zm-382.328-31.004-4.601-1.254c2.17-3.479 5.195-7.776 5.195-7.776l11.751 8.737c2.941 2.178 4.264 1.371 7.058-2.398l2.567-3.464c2.321-3.136 2.621-4.749-.213-6.846l-8.191-6.068-4.601-1.257c3.3-4.21 5.95-7.202 5.95-7.202l13.262 9.827c4.954 3.666 4.598 7.366.216 13.28l-5.052 6.819c-5.258 7.099-8.591 8.55-13.625 4.822zm126.696-96.553 18.842 14.398-3.634-17.628c3.634-.635 7.517-1.211 7.517-1.211l4.136 24.203c-5.584.759-10.274 1.698-10.274 1.698l-18.318-14.131 4.415 17.343c-3.989 1.136-7.036 2.031-7.036 2.031l-5.148-19.341-2.677-3.948s6.681-2.01 12.177-3.414m61.824 7.769q7.067.363 14.105 1.005c1.303.181 2.231 1.356 2.107 2.665-.125 1.309-1.259 2.287-2.572 2.219q-6.936-.638-13.907-.99.132-2.447.267-4.899m.539-9.294q6.886.352 13.739.964c.612.016 1.187.296 1.578.767.391.472.558 1.089.46 1.693.008.623-.267 1.215-.747 1.611-.481.396-1.114.554-1.724.428q-6.77-.605-13.57-.95.127-2.26.264-4.513m-8.356-.741c-.256 6.915-.462 13.247-.663 20.166q11.841.33 23.579 1.478c5.555.553 8.264-1.075 8.88-5.911.424-1.394.232-2.902-.527-4.145-.76-1.244-2.014-2.103-3.447-2.363 2.43-.292 4.313-2.263 4.495-4.704.605-4.715-2.068-7.157-8.136-7.744-8.602-.939-17.251-1.386-25.904-1.338q.869 2.277 1.723 4.561m135.312 61.927c-1.822 2.251-3.864 2.336-6.423.264l-9.874-7.989 8.209-10.142 9.126 7.384c3.069 2.486 3.615 4.734 1.72 7.076zm4.419 6.347 5.382-6.651c3.747-4.631 2.541-8.69-3.208-13.343-9.797-8.161-18.703-14.361-18.703-14.361l-1.452 4.542-12.477 15.429 18.706 15.136c4.686 3.79 8.283 3.53 11.752-.752m-71.93-50.638-1.004 3.38c-1.214 4.067-3.344 4.147-7.975 2.769l-4.624-1.379c-4.561-1.36-6.394-2.64-5.206-6.625l.986-3.315c1.229-4.121 3.168-4.344 8.012-2.9l4.656 1.39c4.631 1.378 6.369 2.614 5.155 6.68m-10.05-14.461c-3.064-1.342-6.464-1.72-9.749-1.085-2.409.891-3.736 3.069-4.829 6.739l-1.939 6.497c-1.172 2.533-.992 5.486.48 7.857 2.406 2.343 5.472 3.893 8.785 4.441l8.532 2.544c3.072 1.353 6.484 1.735 9.779 1.093 2.258-.862 3.655-2.911 4.711-6.453l1.987-6.662c1.158-2.57 1.005-5.541-.411-7.978-2.41-2.336-5.474-3.885-8.784-4.441z" fill="#fff"/></svg>