<svg height="333.766473" viewBox="0 0 17.966495 20.014687" width="299.610681" xmlns="http://www.w3.org/2000/svg"><g transform="matrix(.35277777 0 0 -.35277777 -7.24054 209.192741)"><path d="m0 0-.273.102v-.001l-.051.019c-1.255.453-5.609 2.089-8.932 4.145-5.982 3.704-9.016 7.819-9.016 12.23v3.389c-3.095.242-4.888 1.899-4.975 3.072l-.056.75c-.296 3.935-.693 9.27-.737 10.176-.069 1.419.373 2.671 1.278 3.62 1.052 1.105 2.623 1.679 4.49 1.649v5.049h2.504c2.673 0 4.411.54 6.424 1.166.326.101.656.204.994.305.065 4.549 3.786 8.23 8.35 8.23s8.285-3.681 8.351-8.23c.338-.101.667-.204.993-.305 2.013-.626 3.751-1.166 6.425-1.166h2.503v-5.049c1.87.029 3.438-.544 4.49-1.649.905-.949 1.347-2.201 1.278-3.62-.049-1.03-.574-8.008-.746-10.302l-.046-.624c-.088-1.177-1.894-2.843-4.976-3.074v-3.387c0-4.411-3.034-8.526-9.016-12.23-3.325-2.058-7.678-3.693-8.933-4.146z" fill="#ddcba4" transform="translate(45.9887 537.6701)"/><path d="m0 0c-.315 0-.617-.022-.904-.063v5.11h-1.727c-3.498 0-5.541.91-8.217 1.673.009.151.023.301.023.454 0 4.183-3.391 7.574-7.574 7.574-4.184 0-7.575-3.391-7.575-7.574 0-.153.014-.303.023-.454-2.677-.763-4.718-1.673-8.217-1.673h-1.726v-5.11c-.288.041-.59.063-.905.063-3.125 0-4.989-1.877-4.865-4.456.057-1.162.735-10.128.792-10.906.058-.778 1.711-2.383 4.934-2.383.014 0 .029.002.044.003v-4.138c0-4.125 2.909-8.018 8.648-11.57 3.7-2.291 8.693-4.039 8.847-4.097.154.058 5.146 1.806 8.846 4.097 5.739 3.552 8.649 7.445 8.649 11.57v4.138c.014-.001.03-.003.043-.003 3.224 0 4.876 1.605 4.934 2.383s.736 9.744.791 10.906c.125 2.579-1.738 4.456-4.864 4.456" fill="#0c2340" transform="translate(64.3882 576.0457)"/><g fill="#ddcba4"><path d="m0 0c-2.982 1.171-7.122 2.727-11.262 2.727s-8.279-1.556-11.261-2.727c-.466-.183-1.404-.647-2.479-1.094v-5.15c0-6.6 13.74-11.806 13.74-11.806s13.741 5.206 13.741 11.806v5.15c-1.076.447-2.013.911-2.479 1.094" transform="translate(57.2505 560.4097)"/><path d="m0 0c3.407 1.305 7.229 2.678 11.513 2.678s8.107-1.373 11.513-2.678c.683-.262 1.439-.502 2.227-.705v8.543c-4.504 0-5.818 2.694-13.74 2.694-7.922 0-9.236-2.694-13.74-2.694v-8.543c.788.203 1.544.443 2.227.705" transform="translate(34.4758 569.5001)"/><path d="m0 0 .078 2.334c-1.544.125-2.201-.481-2.148-1.162v-.001c0-.001.305-1.034 2.07-1.171" transform="translate(27.8403 571.871)"/><path d="m0 0c.052.681-.604 1.288-2.149 1.163l.079-2.335c1.766.137 2.07 1.172 2.07 1.172" transform="translate(66.2075 573.0425)"/></g><path d="m0 0-.909-.595v-.498l2.303-1.63 1.884.958c-.874.888-2.008 1.516-3.278 1.765m-5.712-1.765 1.884-.958 2.303 1.63v.498l-.908.595c-1.271-.249-2.406-.877-3.279-1.765" fill="#fff" transform="translate(47.2058 589.4752)"/><g fill="#ddcba4"><path d="m0 0c.183.506.376 1.011.577 1.513-.451.337-.916.664-1.397.98-.48-.316-.945-.643-1.396-.98.201-.502.394-1.007.577-1.513.547.015 1.093.015 1.639 0m-2.093-.676c-.299.8-.62 1.596-.965 2.387.709.554 1.455 1.085 2.238 1.587.785-.502 1.53-1.033 2.238-1.587-.343-.791-.665-1.587-.964-2.387-.848.037-1.698.037-2.547 0" transform="translate(46.8082 584.2723)"/><path d="m0 0s-1.446-.144-2.263-.291c-.181.355-.366.708-.549 1.047.292.282.595.561.902.833.51-.259 1.597-.873 1.597-.873l-.489 1.073c-.392.212-1.217.625-1.217.625-.727-.635-1.634-1.518-1.634-1.518l1.019-1.869s1.617.312 2.874.374z" transform="translate(43.7367 584.1647)"/><path d="m0 0c-1.582.268-3.181.402-4.78.402-1.6 0-3.199-.134-4.781-.402 0 0-.147-.378-.282-.785 1.673.312 3.368.467 5.063.467s3.39-.155 5.062-.467c-.135.407-.282.785-.282.785" transform="translate(50.7692 582.5503)"/><path d="m0 0s1.445-.144 2.262-.291c.182.355.366.708.55 1.047-.292.282-.595.561-.902.833-.511-.259-1.597-.873-1.597-.873l.489 1.073c.392.212 1.217.625 1.217.625.727-.635 1.633-1.518 1.633-1.518l-1.018-1.869s-1.617.312-2.874.374z" transform="translate(48.241 584.1647)"/></g><g fill="#fff"><path d="m0 0v-5.069l-.769.172v5.069z" transform="translate(26.5604 566.1026)"/><path d="m0 0c-.242-.011-.483-.013-.724-.007v5.069c.262-.006.526-.003.79.01.375-1.017.751-2.014 1.126-2.991v3.107c.246.039.493.085.738.141v-5.068c-.245-.056-.492-.104-.738-.142-.397.941-.795 1.905-1.192 2.891z" transform="translate(28.4024 560.937)"/><path d="m0 0v-3.505l.865.308c.096.035.144.086.144.176v3.244c0 .089-.048.12-.144.086zm-.741.52 2.162.773c.186.066.337-.039.337-.231v-4.36c0-.193-.151-.405-.343-.48l-2.156-.77z" transform="translate(32.1382 566.0299)"/><path d="m0 0 1.643.583v-.758l-2.386-.845v5.069l2.386.845v-.764l-1.643-.583v-1.412l1.196.425v-.765l-1.196-.424z" transform="translate(35.6947 563.7864)"/><path d="m0 0 .87.246c.099.028.147.09.147.18v1.136c0 .09-.048.124-.147.096l-.87-.246zm-.007-.759v-2.115l-.765-.216v5.069l2.211.625c.189.054.343-.061.343-.254v-2.259c0-.186-.154-.388-.343-.442z" transform="translate(39.1709 567.066)"/><path d="m0 0 1.727.232v-.759l-2.507-.335v5.069l2.507.336v-.765l-1.727-.231v-1.412l1.257.168v-.764l-1.257-.169z" transform="translate(42.7375 565.7797)"/><path d="m0 0-.728.036v5.069l.794-.039 1.128-3.162v3.106l.743-.036v-5.069l-.743.036-1.194 3.069z" transform="translate(46.3307 565.2797)"/><path d="m0 0v-3.505l.892-.214c.1-.024.15-.002.15.088v3.244c0 .089-.05.149-.15.173zm-.765.969 2.232-.535c.191-.046.347-.242.347-.435v-4.359c0-.193-.156-.314-.355-.274l-2.224.534z" transform="translate(50.1467 569.1079)"/><path d="m0 0 1.643-.58v-.758l-2.385.843v5.069l2.385-.843v-.764l-1.643.58v-1.412l1.196-.423v-.764l-1.196.423z" transform="translate(53.7743 564.5344)"/><path d="m0 0-.68.262v5.069l.742-.285 1.053-3.513v3.106l.695-.268v-5.068l-.695.267-1.115 3.44z" transform="translate(57.1416 562.5296)"/><path d="m0 0c0-.124.058-.207.173-.233.226-.05.453-.094.68-.131.115.002.158.065.158.181v.434c.258-.038.515-.069.772-.09v-1.047c0-.193-.157-.339-.35-.317-.615.071-1.233.19-1.848.359-.194.052-.357.261-.357.454v4.367c0 .192.163.3.357.248.615-.169 1.233-.288 1.848-.358.193-.023.35-.193.35-.386v-1.054c-.246.021-.495.049-.743.086v.434c0 .111-.036.184-.137.207-.227.036-.453.079-.681.129-.151.033-.222-.005-.222-.156z" transform="translate(60.8647 562.1425)"/><path d="m0 0c.577.044 1.156.15 1.728.319v-.757c-.83-.245-1.676-.359-2.507-.341v5.069c.831-.018 1.677.096 2.507.34v-.764c-.572-.169-1.151-.275-1.728-.319v-1.412c.42.032.841.097 1.261.195v-.764c-.42-.098-.841-.163-1.261-.196z" transform="translate(64.4146 561.5856)"/></g><g fill="#0c2340"><path d="m0 0c-.043-.029-.048-.046-.048-.123v-1.351c0-.199.05-.298.175-.351h-.745c.122.062.168.156.168.351v.906c-.094-.056-.212-.091-.28-.09l-.058.003c-.031.002-.052-.007-.086-.036v.407c.029-.046.065-.068.122-.068.194 0 .398.15.398.291 0 .027-.007.044-.031.061z" transform="translate(41.708 548.3313)"/><path d="m0 0c.055.051.062.065.069.147.01.395.205.828.61 1.363h-.433c-.277 0-.484-.058-.66-.181l.149.407c.007.015.01.029.01.036 0 .02-.012.031-.041.046h1.659c-.068-.038-.186-.178-.354-.416-.321-.46-.472-.829-.472-1.152 0-.108.017-.166.074-.25z" transform="translate(43.594 546.5059)"/><path d="m0 0c.055.051.062.065.07.147.009.395.204.828.609 1.363h-.434c-.277 0-.483-.058-.659-.181l.149.407c.008.015.01.029.01.036 0 .02-.012.031-.041.046h1.659c-.068-.038-.186-.178-.354-.416-.321-.46-.473-.829-.473-1.152 0-.108.018-.166.076-.25z" transform="translate(46.3858 546.5059)"/><path d="m0 0c.322-.137.568-.2.792-.2.268 0 .436.111.436.287s-.147.292-.371.292c-.195 0-.414-.061-.561-.155v.017c0 .024-.017.048-.051.077l-.086.072c-.026.02-.039.027-.056.027-.007 0-.013-.003-.028-.007l.084.816c.002.012.002.026.002.034 0 .039-.007.053-.043.093h1.421c-.037-.024-.051-.043-.051-.072 0-.01.002-.031.01-.055l.072-.337c-.116.103-.286.156-.51.156h-.521l-.04-.412c.103.034.245.051.416.051.222 0 .385-.043.517-.139.145-.104.227-.261.227-.434 0-.376-.351-.616-.903-.616-.151 0-.385.021-.503.045-.027.007-.051.01-.065.01-.032 0-.051-.012-.07-.041z" transform="translate(48.917 546.9703)"/><path d="m0 0 .434.479s-3.63.303-6.489-1.191c2.991.686 4.817.492 4.817.492s-.303-.301-.46-.539c0 0 3.07.285 6.481-.154-1.944.813-4.783.913-4.783.913" transform="translate(46.5168 550.0275)"/><path d="m0 0s-.49.804-1.149.996c-.371.744-1.291.833-1.291.833s.391-.354.094-.432c-.579-.152-.737.302-1.852.004-.908-.244-1.204.084-1.204.084-.075-.52.327-.576.327-.576s-.352-.305-.846-.063c-.066-.069-.06-.175-.03-.278-.447-.159-.933-.359-1.455-.601-.148.108-.285.203-.41.285.181.42.44.736.44.736s-.182.163-.016.239c.124.056.315-.047.428-.094.144-.061.234.015.273.087.048.086.103.209.103.209l.193.017-.072.363s.019.05.029.12l1.08.086s-.376.561-.876.765c-.291.118-.629.063-.913-.041-.208-.077-.289.015-.149.135.082.071.028.102-.058.078-.086-.025-.484-.188-.632-.29-.148-.099-.178-.18.088-.261.083-.026.18-.056.279-.09-.097-.078-.173-.179-.248-.289-.282.216-.708.305-1.141.16-.469-.157-.859-.114-1.008.066.011-.184.399-.508.896-.556-.67-.113-1.454-.4-2.611-1.084-.684-.405-1.229-.296-1.229-.296-.033-.16.03-.343.126-.518-.522.098-1.046.183-1.566.21-1.152.061-1.989-.251-2.45-.786-.266.223-.642.352-1.132.254-1.62-.324-2.334.61-2.334.61-.023-.475.334-.83.334-.83-.45-.137-.582.037-1.064-.173-.569-.248-.506-.92-.506-.92s.232.527.919-.039c.944-.776 1.728-.667 2.507.112.363.364.691.439.951.404-.028-.089-.055-.176-.068-.269-.08-.599.211-1.472 1.214-1.899.008-.194-.019-.388-.106-.567-.307-.628-.697-.838-.697-.838s.116-.327 1.838-.836c1.741-.514 1.051-1.248 1.051-1.248s.725-.337 1.554-.341c-.01.463-.26.969-.26.969s-.61.548-2.083 1.006c-.613.19-.387.641.641.993.255.087.476.185.683.285.235-.52.257-1.107.257-1.107 1.709-.347 1.395-1.141 1.395-1.141s.521-.14 1.281-.035c0 0-.068.49-.272.783 0 0-.924.511-1.711.656-.051.411.384.898.835 1.281 1.142-.053 2.035-.233 2.592-.403-.163-.065-.321-.141-.47-.233 0 0 2.2-.342 3.912-1.758-.254-.338-1.209-.649-1.209-.649l-.03-.295c-.407.053-.567.256-.567.256-.501-.192-.851-.49-.851-.49s.288-.219.862-.439c0 0 .753-.019 1.493.235 0 0-.335.305.438.478.915.204 1.258.845 1.258.845-.49.811-1.13 1.487-1.567 1.901.167.091.332.206.494.348.342 0 .72.024 1.12.067 1.057.113 1.565-.107 1.565-.107s.037-.629-.444-1.037l.164-.287c-.228-.214-.702-.214-.702-.214-.148-.251-.173-.759-.173-.759s.409-.024.952.139c0 0 .594.346.855.885 0 0-.408.104.163.708.453.48.07 1.174.07 1.174-.988.281-2.399.495-3.119.594-.006.198-.038.336-.038.336.817 1.313 2.317 1.684 2.317 1.684.329-1.159 1.74-.804 1.74-.804s.89-.285 1.13-.834l.461.065s.62.386.875.755c0 0-1.012 1.051-1.668 1.511" transform="translate(55.3737 558.4617)"/></g><g fill="#003da5"><path d="m0 0s-.997-.468-1.298-1.24c0 0 1.528-.164 2.678-.724l.077.048s-1.061.684-1.885.974c.073.341.428.942.428.942" transform="translate(47.0429 559.43)"/><path d="m0 0s2.263 1.586 4.93 1.402l.012-.056c-1.596-.104-3.067-.533-4.416-1.701-.259.172-.526.355-.526.355" transform="translate(48.5054 557.9979)"/><path d="m0 0s-1.31-.711-2.088-.918c0 0 1.353-.635 2.597-1.694l.109.033s-.62.936-1.471 1.575c.633.282.853 1.004.853 1.004" transform="translate(49.495 555.6195)"/><path d="m0 0s-1.061.115-2.498-.921c-1.155-.832-1.608-.503-1.608-.503s.583-.953 2.028.19c1.385 1.095 2.078 1.234 2.078 1.234" transform="translate(46.8754 559.9643)"/><path d="m0 0s.096.624.953 1.02c.809.374 2.427.063 3.036-.054 0 0 .197-.243.529-.416-.706.041-3.28.767-4.518-.55" transform="translate(38.6414 556.8298)"/><path d="m0 0s.835-.123 1.419.171l-.249.379s.453-.295 1.114-.252c.634.041 1.049.161 1.049.161s-.717-.448-1.289-.384l.317-.252s-1.398-.549-2.361.177" transform="translate(34.4605 557.2348)"/></g><g fill="#0c2340"><path d="m0 0c0-.07.03-.096.09-.072.118.049.237.097.356.144.06.035.082.082.082.148v.245c.136.053.271.104.408.155v-.59c0-.109-.084-.229-.185-.268-.324-.123-.647-.253-.967-.388-.101-.043-.186.009-.186.118v2.462c0 .109.085.236.186.278.32.136.643.266.967.389.101.039.185-.02.185-.129v-.594c-.131-.049-.262-.098-.393-.149v.245c0 .062-.018.094-.071.076-.119-.046-.238-.094-.356-.142-.079-.032-.116-.079-.116-.164z" transform="translate(35.4037 573.4058)"/><path d="m0 0c.187.056.374.11.562.162v1.228c.139.038.278.076.417.112v-2.859c-.139-.036-.278-.074-.417-.112v1.2c-.188-.052-.375-.106-.562-.162v-1.201c-.138-.041-.276-.084-.414-.128v2.859c.138.044.276.087.414.128z" transform="translate(38.0039 575.4279)"/><path d="m0 0c.12.023.24.045.36.067-.058.37-.117.74-.176 1.11-.062-.392-.123-.784-.184-1.177m-.027 2.132c.146.028.292.055.438.081.163-.924.327-1.849.491-2.776-.144-.023-.288-.047-.432-.072-.012.089-.023.179-.035.269-.175-.031-.351-.064-.525-.098-.016-.095-.031-.19-.047-.285-.141-.028-.281-.057-.421-.088.176.992.353 1.981.531 2.969" transform="translate(40.6797 575.1787)"/><path d="m0 0c.165.017.329.031.494.045.056.005.084.034.084.085v.64c0 .051-.028.076-.084.071-.165-.013-.329-.028-.494-.045zm.581-1.568c-.091.391-.182.78-.273 1.17-.104-.009-.208-.019-.312-.029v-1.193c-.142-.014-.284-.03-.426-.046v2.859c.414.048.829.086 1.245.115.107.008.194-.076.194-.184v-1.275c0-.128-.091-.199-.269-.212.091-.391.182-.782.273-1.174-.144-.009-.288-.02-.432-.031" transform="translate(43.1702 576.4417)"/><path d="m0 0v2.859c.143.002.286.003.428.003v-2.431c.316 0 .633-.006.949-.017v-.427c-.459.016-.918.02-1.377.013" transform="translate(45.4879 574.956)"/><path d="m0 0c0-.066.032-.093.096-.099.12-.012.24-.024.359-.037.067-.008.102.012.102.081v1.799c0 .066-.027.1-.094.108-.121.013-.243.026-.364.038-.067.006-.099-.018-.099-.084zm-.229-.496c-.107.009-.198.106-.198.214v2.462c0 .11.091.192.198.183.34-.029.68-.065 1.019-.107.107-.013.193-.114.193-.223v-2.462c0-.109-.086-.187-.193-.174-.339.042-.679.078-1.019.107" transform="translate(48.4881 575.355)"/><path d="m0 0c.482-.084.963-.18 1.442-.29v-.427c-.171.039-.34.076-.511.112v-2.432c-.14.03-.281.058-.422.085v2.432c-.17.032-.339.063-.509.092z" transform="translate(50.6044 577.4146)"/><path d="m0 0c.475-.128.948-.268 1.418-.421v-.426c-.167.054-.334.107-.502.157v-2.431c-.137.042-.276.083-.414.123v2.432c-.167.047-.334.094-.502.138z" transform="translate(53.0079 576.8862)"/><path d="m0 0c.299-.117.597-.24.893-.368v-.427c-.43.186-.863.36-1.3.524v2.859c.437-.164.87-.338 1.3-.525v-.431c-.296.128-.594.251-.893.368v-.796c.217-.085.435-.173.651-.265v-.431c-.216.091-.434.18-.651.265z" transform="translate(55.9306 573.4949)"/></g><g fill="#003da5"><path d="m0 0c-4.283 0-8.106-1.383-11.513-2.688-.693-.265-1.447-.51-2.227-.713v7.613c4.504 0 5.818 2.694 13.74 2.694s9.236-2.694 13.741-2.694v-7.613c-.781.203-1.535.448-2.228.713-3.406 1.305-7.229 2.688-11.513 2.688m22.254-2.149c-1.342-1.886-4.197-2.084-7.011-1.585v.078c2.453-.165 4.002.732 4.86 1.487-.001 1.187.116 2.085.116 2.085s-.402-1.388-3.015-1.164c-1.13.098-1.786.46-2.169.843v.016c-.299.31-.47.665-.47 1.042 0 .378.171.733.47 1.043v3.81h-1.294c-3.32 0-5.932 2.695-13.741 2.695s-10.421-2.695-13.74-2.695h-1.295v-3.81c.3-.31.47-.665.47-1.043 0-.377-.17-.732-.47-1.042v-.016c-.383-.383-1.038-.745-2.169-.843-2.612-.224-3.015 1.164-3.015 1.164s.117-.898.116-2.085c.858-.755 2.407-1.652 4.86-1.487v-.078c-2.814-.499-5.669-.301-7.011 1.585l.076-1.416c.499-.484 1.145-.812 1.874-1.026 0-.003-.001-.006-.001-.009 0 0 .057-.017.163-.04 2.538-.671 6.082.038 8.629 1.014 3.407 1.305 7.23 2.678 11.513 2.678 4.284 0 8.107-1.373 11.513-2.678 2.547-.976 6.091-1.685 8.629-1.014.107.023.164.04.164.04-.001.003-.001.006-.002.009.73.214 1.375.542 1.874 1.026z" transform="translate(45.9887 573.1261)"/><path d="m0 0v-5.151c0-6.599-13.74-11.805-13.74-11.805s-13.741 5.206-13.741 11.805v5.151c.141.059-.706-.292-1.295-.493v-4.658c0-7.483 13.544-12.663 15.036-13.229 1.492.566 15.035 5.746 15.035 13.229v4.658c-.588.201-1.436.552-1.295.493" transform="translate(59.7292 559.3162)"/></g></g></svg>