<svg height="500" viewBox="0 0 500 500" width="500" xmlns="http://www.w3.org/2000/svg"><path d="m500 250c0-138.071-111.929-250-250-250s-250 111.929-250 250 111.929 250 250 250 250-111.929 250-250z"/><path d="m250.012 99.705c-40.724 0-45.835.177-61.829.9-15.964.726-26.86 3.237-36.394 6.92-9.863 3.804-18.229 8.894-26.563 17.176-8.341 8.279-13.464 16.589-17.307 26.382-3.717 9.474-6.248 20.301-6.966 36.152-.716 15.888-.903 20.967-.903 61.42 0 40.452.181 45.513.906 61.401.734 15.857 3.261 26.68 6.966 36.151 3.833 9.797 8.957 18.107 17.294 26.386 8.332 8.285 16.698 13.387 26.554 17.191 9.54 3.683 20.44 6.194 36.4 6.92 15.995.723 21.102.9 61.823.9 40.727 0 45.822-.177 61.817-.9 15.963-.726 26.872-3.237 36.412-6.92 9.859-3.804 18.213-8.906 26.544-17.191 8.341-8.279 13.465-16.589 17.307-26.383 3.686-9.474 6.217-20.3 6.967-36.151.718-15.888.905-20.952.905-61.404 0-40.453-.187-45.529-.905-61.417-.75-15.857-3.281-26.681-6.967-36.151-3.842-9.797-8.966-18.107-17.307-26.386-8.34-8.286-16.681-13.375-26.553-17.176-9.559-3.683-20.462-6.194-36.425-6.92-15.995-.723-21.087-.9-61.823-.9zm-13.452 26.842c3.992-.006 8.447 0 13.452 0 40.036 0 44.781.143 60.592.857 14.62.664 22.555 3.09 27.84 5.129 6.998 2.7 11.987 5.927 17.232 11.14 5.248 5.213 8.497 10.178 11.221 17.129 2.053 5.245 4.499 13.127 5.164 27.649.719 15.702.875 20.419.875 60.169 0 39.751-.156 44.468-.875 60.17-.668 14.522-3.111 22.404-5.164 27.648-2.718 6.951-5.973 11.901-11.221 17.111-5.248 5.213-10.231 8.44-17.232 11.14-5.279 2.048-13.22 4.469-27.84 5.133-15.807.713-20.556.869-60.592.869-40.04 0-44.785-.156-60.592-.869-14.62-.671-22.555-3.097-27.844-5.136-6.998-2.7-11.996-5.927-17.244-11.14s-8.497-10.166-11.221-17.12c-2.053-5.244-4.499-13.126-5.164-27.649-.719-15.701-.862-20.418-.862-60.194s.143-44.467.862-60.169c.668-14.523 3.111-22.405 5.164-27.655 2.717-6.951 5.973-11.916 11.221-17.129s10.246-8.441 17.244-11.147c5.286-2.048 13.224-4.468 27.844-5.135 13.833-.621 19.193-.807 47.14-.838zm93.493 24.732c-9.934 0-17.993 7.997-17.993 17.868 0 9.868 8.059 17.874 17.993 17.874 9.935 0 17.994-8.006 17.994-17.874s-8.059-17.874-17.994-17.874zm-80.041 20.884c-42.527 0-77.006 34.249-77.006 76.492 0 42.242 34.479 76.476 77.006 76.476 42.526 0 76.992-34.234 76.992-76.476 0-42.243-34.469-76.492-76.995-76.492zm0 26.842c27.603 0 49.983 22.227 49.983 49.65 0 27.419-22.38 49.649-49.983 49.649-27.607 0-49.983-22.23-49.983-49.649 0-27.423 22.376-49.65 49.983-49.65z" fill="#fff"/></svg>