<?xml version="1.0" encoding="UTF-8"?>
<!-- Generated by Pixelmator Pro 3.2.1 -->
<svg width="1000" height="1000" viewBox="0 0 1000 1000" xmlns="http://www.w3.org/2000/svg" xmlns:xlink="http://www.w3.org/1999/xlink">
    <linearGradient id="linearGradient1" x1="953.127972" y1="500" x2="50.127972" y2="500" gradientUnits="userSpaceOnUse">
        <stop offset="0.102475" stop-color="#ffffff" stop-opacity="1"/>
        <stop offset="0.904409" stop-color="#ffffff" stop-opacity="0"/>
    </linearGradient>
    <path id="Ballon" fill="url(#linearGradient1)" fill-rule="evenodd" stroke="none" d="M 500 1000 C 223.857895 1000 0 776.14209 0 500 C 0 223.85791 223.857895 0 500 0 C 776.14209 0 1000 223.85791 1000 500 C 1000 776.14209 776.14209 1000 500 1000 Z M 500 950 C 748.527893 950 950 748.527893 950 500 C 950 251.472107 748.527893 50 500 50 C 251.472107 50 50 251.472107 50 500 C 50 748.527893 251.472107 950 500 950 Z"/>
    <g id="New-Group">
        <path id="TDV" fill="#ffffff" fill-rule="evenodd" stroke="none" d="M 813 300 L 870 300 L 698 700 L 686 700 L 594 486 L 625 425 L 692 580 Z"/>
        <radialGradient id="radialGradient1" cx="380.335938" cy="674.300781" r="249.353613" fx="380.335938" fy="674.300781" gradientUnits="userSpaceOnUse">
            <stop offset="0" stop-color="#ffffff" stop-opacity="0"/>
            <stop offset="1" stop-color="#ffffff" stop-opacity="1"/>
        </radialGradient>
        <path id="Forme" fill="url(#radialGradient1)" fill-rule="evenodd" stroke="none" d="M 326 300 L 406 300 C 460.479462 300 503.383301 308.179626 535.115234 324.523438 C 566.847107 340.86731 592.079163 364.904846 610.8125 396.636719 C 629.545837 428.368591 638.912109 462.967041 638.912109 500.433594 C 638.912109 527.195435 633.752136 552.809387 623.429688 577.277344 C 613.107239 601.745361 598.387085 623.250854 579.271484 641.792969 C 559.77356 660.90863 537.122498 675.340881 511.316406 685.089844 C 496.215027 691.015625 482.356567 694.983093 469.740234 696.990234 C 457.123901 698.997314 440.555023 700 405 700 C 405 700 380 700 380 675 C 380 650 403 650 405 650 C 427.530884 650 458.628448 645.474365 468.306641 643.083984 C 484.172546 639.165222 497.4104 634.195251 508.019531 628.173828 C 518.628723 622.152405 528.329895 614.744385 537.123047 605.951172 C 565.414185 577.277771 579.558594 541.053955 579.558594 497.279297 C 579.558594 454.269165 565.030273 419.192993 535.974609 392.048828 C 525.269897 381.917542 512.989685 373.602844 499.130859 367.103516 C 485.272095 360.604248 472.130249 356.30188 459.705078 354.199219 C 447.279968 352.096497 427.526459 350 400 350 L 326 350 L 326 300 Z"/>
        <path id="path1" fill="#ffffff" fill-rule="evenodd" stroke="none" d="M 155 300 L 375 300 L 375 350 L 326 350.045288 L 326 675 C 326 675 325.817993 700 297.817993 700 C 269.817993 700 270 675 270 675 L 270 350 L 155.257523 350 C 155.257523 350 130 349.993652 130 324.993652 C 130 299.993652 155 300 155 300 Z"/>
    </g>
</svg>
