<svg height="500" viewBox="0 0 500 500" width="500" xmlns="http://www.w3.org/2000/svg"><path d="m500 250c0-138.071-111.929-250-250-250s-250 111.929-250 250 111.929 250 250 250 250-111.929 250-250z"/><path d="m220.079 386.344 51.264-126.084 26.172-64.35 9.083 3.695-8.929 22.168-.616 1.694-.154.616c-.77 3.232-.77 6.619.154 9.852 2.309 8.467 10.16 14.471 19.089 14.471h.77c1.232 0 3.079-.154 5.08-.923 6.774-2.31 10.315-5.85 13.086-12.932l16.011-39.411c1.385-3.387 2.463-7.235 1.077-12.316-1.539-5.542-4.926-9.544-9.544-11.546l-.308-.154c-.308-.154-.77-.308-1.232-.462l-51.881-21.091c8.468-6.773 12.624-18.166 9.545-29.25-3.387-12.008-14.317-20.321-26.787-20.321h-1.077c-2.156.154-4.311.462-6.466 1.078-7.082 2.001-13.086 6.619-16.781 13.085-3.694 6.466-4.618 14.01-2.617 21.091 2.002 7.082 6.62 12.932 12.778 16.473-6.466 2.771-18.474 8.005-40.027 17.396-24.324 10.622-50.649 22.015-59.424 25.863-9.083 3.849-14.009 14.01-11.392 23.554 2.309 8.468 10.161 14.472 19.09 14.472h.769c1.54 0 3.079-.308 4.619-.77.616-.154 1.385-.462 2.155-.77h.154l43.106-19.551-5.85 14.471-26.326 65.12-.154.308c-1.385 3.849-1.539 8.159-.461 12.008 2.463 8.621 10.006 14.471 18.935 14.471h.77c.462 0 .924 0 1.386-.154l-21.861 53.728s-8.775 18.32 9.237 26.017c20.937 9.083 27.557-11.546 27.557-11.546z" fill="#fff"/><path d="m272.575 399.43c-14.163.616-26.787-8.621-30.636-22.323-4.464-16.164 4.927-33.099 21.245-37.717 2.309-.616 4.619-1.078 7.082-1.078 14.163-.615 26.787 8.621 30.636 22.323 2.155 7.851 1.231 16.164-2.772 23.246-4.002 7.082-10.468 12.316-18.473 14.471-2.31.616-4.773.924-7.082 1.078z" fill="#fff"/><path d="m272.267 390.655c-10.16.462-19.09-6.158-21.861-15.857-3.233-11.546 3.541-23.708 15.087-26.941 1.694-.462 3.387-.77 5.081-.77 10.16-.462 19.089 6.158 21.86 15.857 1.54 5.542.924 11.546-2.001 16.626-2.925 5.081-7.543 8.776-13.086 10.315-1.693.308-3.386.616-5.08.77z"/><path d="m219.309 229.625 13.855-34.331-62.811 28.327c-.462.154-.923.308-1.231.461-.77.154-1.694.308-2.464.462-5.08.154-9.698-3.079-11.084-8.005-1.539-5.388 1.232-11.084 6.312-13.24 17.858-7.697 106.994-46.646 107.456-46.8 2.001-.77 4.157-1.231 6.158-1.385 2.771-.154 4.772.307 7.697 1.539l54.806 22.169c.308.154.77.308 1.232.615 2.309.924 3.694 3.233 4.31 5.697.616 2.309.308 3.848-.769 6.619l-16.011 39.565c-1.847 4.772-3.387 6.466-7.698 8.005-.769.308-1.693.308-2.617.462-5.08.154-9.698-3.079-11.084-8.005-.462-1.847-.616-3.695-.154-5.542l.462-1.232 12.162-30.02-25.248-10.314-26.171 64.35zm53.266-82.671c-8.775.308-16.78-5.388-19.09-13.855-2.771-10.161 3.079-20.629 13.24-23.554 1.386-.462 2.925-.616 4.464-.77 8.776-.308 16.781 5.388 19.09 13.855 2.771 10.161-3.079 20.63-13.239 23.555-1.386.461-2.925.615-4.465.769zm-69.277 162.57c-5.08.154-9.699-3.079-11.084-8.005-.616-2.156-.616-4.619.308-6.774l23.092-56.653 20.167 8.159-22.938 56.499c-1.386 3.079-4.003 5.388-7.236 6.312-.769.154-1.385.462-2.309.462zm-1.539 81.285c-5.081.154-9.391-2.925-10.777-8.006-.462-2.001-.616-3.848 0-5.696l.154-.769.462-1.232 51.111-125.93 20.167 8.159-51.111 125.776c-1.539 3.695-3.848 6.158-7.543 7.236-.77.154-1.694.308-2.463.462z"/></svg>