<svg height="500" viewBox="0 0 500 500" width="500" xmlns="http://www.w3.org/2000/svg"><path d="m500 250c0-138.071-111.929-250-250-250s-250 111.929-250 250 111.929 250 250 250 250-111.929 250-250z"/><path d="m194.348 372.812c113.215 0 175.123-93.793 175.123-175.123 0-2.664-.054-5.316-.173-7.956 12.018-8.688 22.464-19.531 30.702-31.873-11.028 4.902-22.896 8.202-35.346 9.69 12.708-7.62 22.464-19.674 27.066-34.044-11.892 7.05-25.062 12.174-39.084 14.94-11.233-11.964-27.223-19.446-44.929-19.446-33.99 0-61.554 27.564-61.554 61.543 0 4.83.539 9.528 1.596 14.034-51.157-2.574-96.517-27.067-126.872-64.309-5.286 9.096-8.334 19.662-8.334 30.936 0 21.355 10.866 40.207 27.391 51.235-10.099-.312-19.585-3.084-27.877-7.698-.009.258-.009.51-.009.786 0 29.808 21.216 54.696 49.381 60.336-5.172 1.41-10.614 2.166-16.231 2.166-3.96 0-7.818-.389-11.568-1.11 7.836 24.457 30.559 42.253 57.499 42.751-21.066 16.512-47.605 26.346-76.447 26.346-4.962 0-9.864-.282-14.682-.852 27.24 17.46 59.587 27.648 94.351 27.648" fill="#fff"/></svg>