<svg height="500" viewBox="0 0 500 500" width="500" xmlns="http://www.w3.org/2000/svg"><path d="m500 250c0-138.071-111.929-250-250-250s-250 111.929-250 250 111.929 250 250 250 250-111.929 250-250z"/><path d="m250.129 355.639s-93.643-.001-116.91-6.346c-12.933-3.5-23.036-13.602-26.535-26.535-9.961-39.688-7.231-102.682-.194-144.024 3.5-12.933 13.604-23.035 26.538-26.535 23.266-6.345 116.91-6.537 116.91-6.537s93.643-.002 116.91 6.344c12.933 3.499 23.035 13.604 26.535 26.537 9.903 39.861 7.616 102.815.193 144.215-3.499 12.933-13.604 23.035-26.537 26.535-23.266 6.345-116.91 6.346-116.91 6.346zm-29.996-59.995 77.684-44.994-77.684-44.996z" fill="#fff"/></svg>